# xmcd
#
# Track frame offsets:
#	150
#	17116
#	36588
#	51472
#	67631
#	83129
#	101063
#	116253
#	132275
#	148205
#	165088
#	181128
#	198136
#	213102
#	228052
#
# Disc length: 3265 seconds
#
# Revision: 0
# Processed by: cddbd v1.5.2PL0 Copyright (c) Steve Scherf et al.
# Submitted via: audiograbber 1.83.01
#
DISCID=bf0cbf0f
DTITLE=Manie Jackson - Manie Jackson
DYEAR=2010
DGENRE=Afrikaans
TTITLE0=Julia
TTITLE1=Die Hemel Weet
TTITLE2=Totsiens is Nooit Verniet
TTITLE3=Ek Begeer
TTITLE4=In Suid-Afrika Kraai Paartie Koning of Hoe
TTITLE5=Kom Laat My Weer Lewe
TTITLE6=Hier is My Hart
TTITLE7=Engele
TTITLE8=Jy het My Hart Verlei
TTITLE9=The Trouble with Love
TTITLE10=Bring die Sterre Nader
TTITLE11=Laat die Mense Praat
TTITLE12=Hande
TTITLE13=Onthou die Eerste Keer
TTITLE14=Vonke Spat
EXTD=
EXTT0=
EXTT1=
EXTT2=
EXTT3=
EXTT4=
EXTT5=
EXTT6=
EXTT7=
EXTT8=
EXTT9=
EXTT10=
EXTT11=
EXTT12=
EXTT13=
EXTT14=
PLAYORDER=
